<mxfile host="65bd71144e">
    <diagram id="GFclDaCIk4YAcfMqffFD" name="Page-1">
        <mxGraphModel dx="1577" dy="1097" grid="1" gridSize="10" guides="1" tooltips="1" connect="1" arrows="1" fold="1" page="1" pageScale="1" pageWidth="850" pageHeight="1100" math="0" shadow="0">
            <root>
                <mxCell id="0"/>
                <mxCell id="1" parent="0"/>
                <mxCell id="2" value="" style="strokeWidth=1;shadow=0;dashed=0;align=center;html=1;shape=mxgraph.mockup.containers.browserWindow;rSize=0;strokeColor=#666666;strokeColor2=#008cff;strokeColor3=#c4c4c4;mainText=,;recursiveResize=0;" parent="1" vertex="1">
                    <mxGeometry x="210" y="480" width="850" height="1940" as="geometry"/>
                </mxCell>
                <mxCell id="3" value="Gamestopia" style="strokeWidth=1;shadow=0;dashed=0;align=center;html=1;shape=mxgraph.mockup.containers.anchor;fontSize=17;fontColor=#666666;align=left;" parent="2" vertex="1">
                    <mxGeometry x="60" y="12" width="170" height="26" as="geometry"/>
                </mxCell>
                <mxCell id="4" value="https://www.draw.io" style="strokeWidth=1;shadow=0;dashed=0;align=center;html=1;shape=mxgraph.mockup.containers.anchor;rSize=0;fontSize=17;fontColor=#666666;align=left;" parent="2" vertex="1">
                    <mxGeometry x="130" y="60" width="250" height="26" as="geometry"/>
                </mxCell>
                <mxCell id="63" value="Carousel&lt;br&gt;new release / comming soon" style="rounded=0;whiteSpace=wrap;html=1;strokeColor=default;fontSize=15;fontColor=#000000;fillColor=none;" parent="2" vertex="1">
                    <mxGeometry x="80" y="260" width="440" height="260" as="geometry"/>
                </mxCell>
                <mxCell id="81" value="" style="group" parent="2" vertex="1" connectable="0">
                    <mxGeometry y="110" width="850" height="70" as="geometry"/>
                </mxCell>
                <mxCell id="14" value="" style="rounded=0;whiteSpace=wrap;html=1;strokeColor=#000000;fillColor=none;" parent="81" vertex="1">
                    <mxGeometry width="850" height="70" as="geometry"/>
                </mxCell>
                <mxCell id="12" value="Gamestopia" style="text;strokeColor=none;fillColor=none;html=1;fontSize=24;fontStyle=1;verticalAlign=middle;align=center;" parent="81" vertex="1">
                    <mxGeometry x="15" y="15" width="160" height="40" as="geometry"/>
                </mxCell>
                <mxCell id="59" value="" style="group" parent="81" vertex="1" connectable="0">
                    <mxGeometry x="634" y="20" width="90" height="30" as="geometry"/>
                </mxCell>
                <mxCell id="19" value="" style="html=1;verticalLabelPosition=bottom;align=center;labelBackgroundColor=#ffffff;verticalAlign=top;strokeWidth=2;strokeColor=#000000;shadow=0;dashed=0;shape=mxgraph.ios7.icons.user;fillColor=none;" parent="59" vertex="1">
                    <mxGeometry width="30" height="30" as="geometry"/>
                </mxCell>
                <mxCell id="20" value="Hello,&lt;br&gt;Sign In" style="text;html=1;strokeColor=none;fillColor=none;align=left;verticalAlign=middle;whiteSpace=wrap;rounded=0;" parent="59" vertex="1">
                    <mxGeometry x="40" width="50" height="30" as="geometry"/>
                </mxCell>
                <mxCell id="60" value="" style="group" parent="81" vertex="1" connectable="0">
                    <mxGeometry x="528" y="20" width="80" height="30" as="geometry"/>
                </mxCell>
                <mxCell id="46" value="" style="html=1;verticalLabelPosition=bottom;align=center;labelBackgroundColor=#ffffff;verticalAlign=top;strokeWidth=2;strokeColor=#000000;shadow=0;dashed=0;shape=mxgraph.ios7.icons.globe;fontSize=15;fontColor=#000000;fillColor=none;" parent="60" vertex="1">
                    <mxGeometry width="30" height="30" as="geometry"/>
                </mxCell>
                <mxCell id="52" value="EN&amp;nbsp;" style="text;html=1;strokeColor=none;fillColor=none;align=left;verticalAlign=middle;whiteSpace=wrap;rounded=0;container=0;" parent="60" vertex="1">
                    <mxGeometry x="40" width="40" height="30" as="geometry"/>
                </mxCell>
                <mxCell id="54" value="" style="html=1;verticalLabelPosition=bottom;labelBackgroundColor=#ffffff;verticalAlign=top;shadow=0;dashed=0;strokeWidth=2;shape=mxgraph.ios7.misc.down;strokeColor=default;fontSize=15;fontColor=#000000;fillColor=none;container=0;" parent="60" vertex="1">
                    <mxGeometry x="63" y="14.120000000000005" width="8" height="3" as="geometry"/>
                </mxCell>
                <mxCell id="79" value="" style="group" parent="81" vertex="1" connectable="0">
                    <mxGeometry x="194" y="20.120000000000005" width="300" height="30" as="geometry"/>
                </mxCell>
                <mxCell id="76" value="" style="html=1;verticalLabelPosition=bottom;align=center;labelBackgroundColor=#ffffff;verticalAlign=top;strokeWidth=2;strokeColor=#000000;shadow=0;dashed=0;shape=mxgraph.ios7.icons.looking_glass;fontSize=15;fontColor=#000000;fillColor=none;" parent="79" vertex="1">
                    <mxGeometry x="270" y="4.939999999999998" width="20" height="20.12" as="geometry"/>
                </mxCell>
                <mxCell id="77" value="&amp;nbsp; Search" style="rounded=1;whiteSpace=wrap;html=1;strokeColor=#000000;fontSize=15;fontColor=#000000;fillColor=none;align=left;" parent="79" vertex="1">
                    <mxGeometry width="300" height="30" as="geometry"/>
                </mxCell>
                <mxCell id="569" value="" style="group" vertex="1" connectable="0" parent="81">
                    <mxGeometry x="750" y="20" width="87" height="30" as="geometry"/>
                </mxCell>
                <mxCell id="17" value="My Rentals" style="text;html=1;strokeColor=none;fillColor=none;align=left;verticalAlign=middle;whiteSpace=wrap;rounded=0;" parent="569" vertex="1">
                    <mxGeometry x="37" width="50" height="30" as="geometry"/>
                </mxCell>
                <mxCell id="567" value="" style="html=1;verticalLabelPosition=bottom;align=center;labelBackgroundColor=#ffffff;verticalAlign=top;strokeWidth=2;strokeColor=#000000;shadow=0;dashed=0;shape=mxgraph.ios7.icons.bookmark;" vertex="1" parent="569">
                    <mxGeometry width="22.5" height="30" as="geometry"/>
                </mxCell>
                <mxCell id="82" value="" style="group" parent="2" vertex="1" connectable="0">
                    <mxGeometry x="30" y="548" width="792" height="30" as="geometry"/>
                </mxCell>
                <mxCell id="65" value="" style="verticalLabelPosition=bottom;shadow=0;dashed=0;align=center;html=1;verticalAlign=top;strokeWidth=1;shape=mxgraph.mockup.markup.line;strokeColor=#999999;fontSize=15;fontColor=#000000;fillColor=none;" parent="82" vertex="1">
                    <mxGeometry y="5" width="310" height="20" as="geometry"/>
                </mxCell>
                <mxCell id="66" value="Browse by Platform" style="text;html=1;strokeColor=none;fillColor=none;align=center;verticalAlign=middle;whiteSpace=wrap;rounded=0;fontSize=15;fontColor=#000000;" parent="82" vertex="1">
                    <mxGeometry x="295" width="200" height="30" as="geometry"/>
                </mxCell>
                <mxCell id="67" value="" style="verticalLabelPosition=bottom;shadow=0;dashed=0;align=center;html=1;verticalAlign=top;strokeWidth=1;shape=mxgraph.mockup.markup.line;strokeColor=#999999;fontSize=15;fontColor=#000000;fillColor=none;" parent="82" vertex="1">
                    <mxGeometry x="482" y="5" width="310" height="20" as="geometry"/>
                </mxCell>
                <mxCell id="86" value="XBOX&lt;span style=&quot;color: rgba(0, 0, 0, 0); font-family: monospace; font-size: 0px; text-align: start;&quot;&gt;%3CmxGraphModel%3E%3Croot%3E%3CmxCell%20id%3D%220%22%2F%3E%3CmxCell%20id%3D%221%22%20parent%3D%220%22%2F%3E%3CmxCell%20id%3D%222%22%20value%3D%22Game%20Img%22%20style%3D%22rounded%3D0%3BwhiteSpace%3Dwrap%3Bhtml%3D1%3BstrokeColor%3Dnone%3BfontSize%3D15%3BfontColor%3D%23333333%3BfillColor%3D%23f5f5f5%3B%22%20vertex%3D%221%22%20parent%3D%221%22%3E%3CmxGeometry%20x%3D%22560%22%20y%3D%22310%22%20width%3D%2298.5%22%20height%3D%22130%22%20as%3D%22geometry%22%2F%3E%3C%2FmxCell%3E%3C%2Froot%3E%3C%2FmxGraphModel%3E&lt;/span&gt;" style="rounded=0;whiteSpace=wrap;html=1;strokeColor=none;fontSize=15;fontColor=#333333;fillColor=#f5f5f5;" parent="2" vertex="1">
                    <mxGeometry x="205" y="600" width="100" height="100" as="geometry"/>
                </mxCell>
                <mxCell id="87" value="PlayStation" style="rounded=0;whiteSpace=wrap;html=1;strokeColor=none;fontSize=15;fontColor=#333333;fillColor=#f5f5f5;" parent="2" vertex="1">
                    <mxGeometry x="370" y="600" width="100" height="100" as="geometry"/>
                </mxCell>
                <mxCell id="88" value="Nintendo" style="rounded=0;whiteSpace=wrap;html=1;strokeColor=none;fontSize=15;fontColor=#333333;fillColor=#f5f5f5;" parent="2" vertex="1">
                    <mxGeometry x="540" y="600" width="100" height="100" as="geometry"/>
                </mxCell>
                <mxCell id="244" value="" style="group" parent="2" vertex="1" connectable="0">
                    <mxGeometry x="60" y="790" width="726" height="199" as="geometry"/>
                </mxCell>
                <mxCell id="121" value="" style="html=1;verticalLabelPosition=bottom;labelBackgroundColor=#ffffff;verticalAlign=top;shadow=0;dashed=0;strokeWidth=2;shape=mxgraph.ios7.misc.left;strokeColor=#000000;fontSize=15;fontColor=#000000;fillColor=none;" parent="244" vertex="1">
                    <mxGeometry y="67" width="6" height="12" as="geometry"/>
                </mxCell>
                <mxCell id="120" value="" style="html=1;verticalLabelPosition=bottom;labelBackgroundColor=#ffffff;verticalAlign=top;shadow=0;dashed=0;strokeWidth=2;shape=mxgraph.ios7.misc.right;strokeColor=#000000;fontSize=15;fontColor=#000000;fillColor=none;" parent="244" vertex="1">
                    <mxGeometry x="720" y="67" width="6" height="12" as="geometry"/>
                </mxCell>
                <mxCell id="203" value="" style="group" parent="244" vertex="1" connectable="0">
                    <mxGeometry x="58.25" width="98.5" height="199" as="geometry"/>
                </mxCell>
                <mxCell id="170" value="&lt;font style=&quot;font-size: 14px;&quot;&gt;Rent&lt;/font&gt;" style="rounded=1;whiteSpace=wrap;html=1;fontSize=17;" parent="203" vertex="1">
                    <mxGeometry x="16.75" y="179" width="65" height="20" as="geometry"/>
                </mxCell>
                <mxCell id="101" value="Game Img" style="rounded=0;whiteSpace=wrap;html=1;strokeColor=none;fontSize=15;fontColor=#333333;fillColor=#f5f5f5;" parent="203" vertex="1">
                    <mxGeometry width="98.5" height="130" as="geometry"/>
                </mxCell>
                <mxCell id="102" value="Game Title" style="text;html=1;strokeColor=none;fillColor=none;align=center;verticalAlign=middle;whiteSpace=wrap;rounded=0;fontSize=15;fontColor=#000000;" parent="203" vertex="1">
                    <mxGeometry x="3.5" y="130" width="91.5" height="30" as="geometry"/>
                </mxCell>
                <mxCell id="202" value="Platform" style="text;html=1;strokeColor=none;fillColor=none;align=center;verticalAlign=middle;whiteSpace=wrap;rounded=0;fontSize=13;fontColor=#808080;" parent="203" vertex="1">
                    <mxGeometry x="3.5" y="150" width="91.5" height="30" as="geometry"/>
                </mxCell>
                <mxCell id="204" value="" style="group" parent="244" vertex="1" connectable="0">
                    <mxGeometry x="555.5" width="98.5" height="199" as="geometry"/>
                </mxCell>
                <mxCell id="205" value="&lt;font style=&quot;font-size: 14px;&quot;&gt;Rent&lt;/font&gt;" style="rounded=1;whiteSpace=wrap;html=1;fontSize=17;" parent="204" vertex="1">
                    <mxGeometry x="16.75" y="179" width="65" height="20" as="geometry"/>
                </mxCell>
                <mxCell id="206" value="Game Img" style="rounded=0;whiteSpace=wrap;html=1;strokeColor=none;fontSize=15;fontColor=#333333;fillColor=#f5f5f5;" parent="204" vertex="1">
                    <mxGeometry width="98.5" height="130" as="geometry"/>
                </mxCell>
                <mxCell id="207" value="Game Title" style="text;html=1;strokeColor=none;fillColor=none;align=center;verticalAlign=middle;whiteSpace=wrap;rounded=0;fontSize=15;fontColor=#000000;" parent="204" vertex="1">
                    <mxGeometry x="3.5" y="130" width="91.5" height="30" as="geometry"/>
                </mxCell>
                <mxCell id="208" value="Platform" style="text;html=1;strokeColor=none;fillColor=none;align=center;verticalAlign=middle;whiteSpace=wrap;rounded=0;fontSize=13;fontColor=#808080;" parent="204" vertex="1">
                    <mxGeometry x="3.5" y="150" width="91.5" height="30" as="geometry"/>
                </mxCell>
                <mxCell id="209" value="" style="group" parent="244" vertex="1" connectable="0">
                    <mxGeometry x="224" width="98.5" height="199" as="geometry"/>
                </mxCell>
                <mxCell id="210" value="&lt;font style=&quot;font-size: 14px;&quot;&gt;Rent&lt;/font&gt;" style="rounded=1;whiteSpace=wrap;html=1;fontSize=17;" parent="209" vertex="1">
                    <mxGeometry x="16.75" y="179" width="65" height="20" as="geometry"/>
                </mxCell>
                <mxCell id="211" value="Game Img" style="rounded=0;whiteSpace=wrap;html=1;strokeColor=none;fontSize=15;fontColor=#333333;fillColor=#f5f5f5;" parent="209" vertex="1">
                    <mxGeometry width="98.5" height="130" as="geometry"/>
                </mxCell>
                <mxCell id="212" value="Game Title" style="text;html=1;strokeColor=none;fillColor=none;align=center;verticalAlign=middle;whiteSpace=wrap;rounded=0;fontSize=15;fontColor=#000000;" parent="209" vertex="1">
                    <mxGeometry x="3.5" y="130" width="91.5" height="30" as="geometry"/>
                </mxCell>
                <mxCell id="213" value="Platform" style="text;html=1;strokeColor=none;fillColor=none;align=center;verticalAlign=middle;whiteSpace=wrap;rounded=0;fontSize=13;fontColor=#808080;" parent="209" vertex="1">
                    <mxGeometry x="3.5" y="150" width="91.5" height="30" as="geometry"/>
                </mxCell>
                <mxCell id="214" value="" style="group" parent="244" vertex="1" connectable="0">
                    <mxGeometry x="390" width="98.5" height="199" as="geometry"/>
                </mxCell>
                <mxCell id="215" value="&lt;font style=&quot;font-size: 14px;&quot;&gt;Rent&lt;/font&gt;" style="rounded=1;whiteSpace=wrap;html=1;fontSize=17;" parent="214" vertex="1">
                    <mxGeometry x="16.75" y="179" width="65" height="20" as="geometry"/>
                </mxCell>
                <mxCell id="216" value="Game Img" style="rounded=0;whiteSpace=wrap;html=1;strokeColor=none;fontSize=15;fontColor=#333333;fillColor=#f5f5f5;" parent="214" vertex="1">
                    <mxGeometry width="98.5" height="130" as="geometry"/>
                </mxCell>
                <mxCell id="217" value="Game Title" style="text;html=1;strokeColor=none;fillColor=none;align=center;verticalAlign=middle;whiteSpace=wrap;rounded=0;fontSize=15;fontColor=#000000;" parent="214" vertex="1">
                    <mxGeometry x="3.5" y="130" width="91.5" height="30" as="geometry"/>
                </mxCell>
                <mxCell id="218" value="Platform" style="text;html=1;strokeColor=none;fillColor=none;align=center;verticalAlign=middle;whiteSpace=wrap;rounded=0;fontSize=13;fontColor=#808080;" parent="214" vertex="1">
                    <mxGeometry x="3.5" y="150" width="91.5" height="30" as="geometry"/>
                </mxCell>
                <mxCell id="353" value="" style="group" parent="2" vertex="1" connectable="0">
                    <mxGeometry x="63.5" y="1573" width="725" height="120" as="geometry"/>
                </mxCell>
                <mxCell id="163" value="" style="rounded=0;whiteSpace=wrap;html=1;" parent="353" vertex="1">
                    <mxGeometry width="725" height="120" as="geometry"/>
                </mxCell>
                <mxCell id="149" value="Sign up and be the first to hear about the hottest offers, new releases, and exclusive deals.&amp;nbsp;" style="text;html=1;align=left;verticalAlign=middle;whiteSpace=wrap;rounded=0;fontSize=13;" parent="353" vertex="1">
                    <mxGeometry x="31.5" y="60" width="320" height="30" as="geometry"/>
                </mxCell>
                <mxCell id="148" value="Subscribe to our newsletter" style="text;html=1;align=left;verticalAlign=middle;whiteSpace=wrap;rounded=0;fontStyle=1;fontSize=17;" parent="353" vertex="1">
                    <mxGeometry x="31.5" y="22" width="255" height="30" as="geometry"/>
                </mxCell>
                <mxCell id="150" value="" style="line;strokeWidth=2;html=1;" parent="353" vertex="1">
                    <mxGeometry x="391.5" y="67.5" width="275" height="10" as="geometry"/>
                </mxCell>
                <mxCell id="151" value="Your Email" style="text;html=1;align=center;verticalAlign=middle;whiteSpace=wrap;rounded=0;textOpacity=50;" parent="353" vertex="1">
                    <mxGeometry x="392" y="42.5" width="60" height="30" as="geometry"/>
                </mxCell>
                <mxCell id="152" value="&lt;b&gt;SUBMIT&lt;/b&gt;" style="text;html=1;align=center;verticalAlign=middle;whiteSpace=wrap;rounded=0;" parent="353" vertex="1">
                    <mxGeometry x="604" y="42.5" width="60" height="30" as="geometry"/>
                </mxCell>
                <mxCell id="550" value="" style="group" parent="2" vertex="1" connectable="0">
                    <mxGeometry y="1730" width="850" height="210" as="geometry"/>
                </mxCell>
                <mxCell id="160" value="" style="rounded=0;whiteSpace=wrap;html=1;" parent="550" vertex="1">
                    <mxGeometry width="850" height="210" as="geometry"/>
                </mxCell>
                <mxCell id="153" value="&lt;b&gt;&lt;font style=&quot;font-size: 16px;&quot;&gt;Follow Us&lt;/font&gt;&lt;/b&gt;" style="text;html=1;align=left;verticalAlign=middle;whiteSpace=wrap;rounded=0;" parent="550" vertex="1">
                    <mxGeometry x="611" y="30" width="120" height="30" as="geometry"/>
                </mxCell>
                <mxCell id="154" value="" style="shape=image;html=1;verticalAlign=top;verticalLabelPosition=bottom;labelBackgroundColor=#ffffff;imageAspect=0;aspect=fixed;image=https://cdn2.iconfinder.com/data/icons/social-media-2285/512/1_Facebook_colored_svg_copy-128.png;fillColor=none;strokeColor=none;" parent="550" vertex="1">
                    <mxGeometry x="614" y="72.5" width="27.5" height="27.5" as="geometry"/>
                </mxCell>
                <mxCell id="155" value="" style="shape=image;html=1;verticalAlign=top;verticalLabelPosition=bottom;labelBackgroundColor=#ffffff;imageAspect=0;aspect=fixed;image=https://cdn3.iconfinder.com/data/icons/2018-social-media-logotypes/1000/2018_social_media_popular_app_logo_twitter-128.png;fillColor=none;strokeColor=none;" parent="550" vertex="1">
                    <mxGeometry x="659" y="72.5" width="27.5" height="27.5" as="geometry"/>
                </mxCell>
                <mxCell id="156" value="" style="shape=image;html=1;verticalAlign=top;verticalLabelPosition=bottom;labelBackgroundColor=#ffffff;imageAspect=0;aspect=fixed;image=https://cdn4.iconfinder.com/data/icons/social-media-flat-7/64/Social-media_Youtube-128.png;fillColor=none;strokeColor=none;" parent="550" vertex="1">
                    <mxGeometry x="702" y="71.25" width="30" height="30" as="geometry"/>
                </mxCell>
                <mxCell id="158" value="" style="dashed=0;outlineConnect=0;html=1;align=center;labelPosition=center;verticalLabelPosition=bottom;verticalAlign=top;shape=mxgraph.weblogos.instagram;fillColor=none;strokeColor=none;" parent="550" vertex="1">
                    <mxGeometry x="747" y="72.5" width="29" height="27.5" as="geometry"/>
                </mxCell>
                <mxCell id="399" value="" style="verticalLabelPosition=bottom;shadow=0;dashed=0;align=center;html=1;verticalAlign=top;strokeWidth=1;shape=mxgraph.mockup.markup.line;strokeColor=#999999;fontSize=16;fontColor=#000000;fillColor=#808080;" parent="550" vertex="1">
                    <mxGeometry x="68" y="150" width="710" height="20" as="geometry"/>
                </mxCell>
                <mxCell id="400" value="&lt;b&gt;&lt;font style=&quot;font-size: 16px;&quot;&gt;Support&lt;/font&gt;&lt;/b&gt;" style="text;html=1;align=left;verticalAlign=middle;whiteSpace=wrap;rounded=0;" parent="550" vertex="1">
                    <mxGeometry x="70" y="30" width="120" height="30" as="geometry"/>
                </mxCell>
                <mxCell id="401" value="&lt;span style=&quot;font-size: 16px;&quot;&gt;&lt;b&gt;Corporate&lt;/b&gt;&lt;/span&gt;" style="text;html=1;align=left;verticalAlign=middle;whiteSpace=wrap;rounded=0;" parent="550" vertex="1">
                    <mxGeometry x="250" y="30" width="120" height="30" as="geometry"/>
                </mxCell>
                <mxCell id="402" value="&lt;b&gt;&lt;font style=&quot;font-size: 16px;&quot;&gt;Legal&lt;/font&gt;&lt;/b&gt;" style="text;html=1;align=left;verticalAlign=middle;whiteSpace=wrap;rounded=0;" parent="550" vertex="1">
                    <mxGeometry x="431" y="30" width="120" height="30" as="geometry"/>
                </mxCell>
                <mxCell id="406" value="Privacy Policy" style="text;html=1;strokeColor=none;fillColor=none;align=left;verticalAlign=middle;whiteSpace=wrap;rounded=0;fontSize=13;fontColor=#000000;" parent="550" vertex="1">
                    <mxGeometry x="431" y="60" width="150" height="30" as="geometry"/>
                </mxCell>
                <mxCell id="407" value="Terms &amp;amp; Conditions" style="text;html=1;strokeColor=none;fillColor=none;align=left;verticalAlign=middle;whiteSpace=wrap;rounded=0;fontSize=13;fontColor=#000000;" parent="550" vertex="1">
                    <mxGeometry x="431" y="80" width="150" height="30" as="geometry"/>
                </mxCell>
                <mxCell id="408" value="About Us" style="text;html=1;strokeColor=none;fillColor=none;align=left;verticalAlign=middle;whiteSpace=wrap;rounded=0;fontSize=13;fontColor=#000000;" parent="550" vertex="1">
                    <mxGeometry x="250" y="60" width="150" height="30" as="geometry"/>
                </mxCell>
                <mxCell id="409" value="Our Store" style="text;html=1;strokeColor=none;fillColor=none;align=left;verticalAlign=middle;whiteSpace=wrap;rounded=0;fontSize=13;fontColor=#000000;" parent="550" vertex="1">
                    <mxGeometry x="250" y="80" width="150" height="30" as="geometry"/>
                </mxCell>
                <mxCell id="410" value="Contact Us" style="text;html=1;strokeColor=none;fillColor=none;align=left;verticalAlign=middle;whiteSpace=wrap;rounded=0;fontSize=13;fontColor=#000000;" parent="550" vertex="1">
                    <mxGeometry x="70" y="80" width="150" height="30" as="geometry"/>
                </mxCell>
                <mxCell id="411" value="FAQ" style="text;html=1;strokeColor=none;fillColor=none;align=left;verticalAlign=middle;whiteSpace=wrap;rounded=0;fontSize=13;fontColor=#000000;" parent="550" vertex="1">
                    <mxGeometry x="70" y="60" width="150" height="30" as="geometry"/>
                </mxCell>
                <mxCell id="412" value="Shipping &amp;amp; Return" style="text;html=1;strokeColor=none;fillColor=none;align=left;verticalAlign=middle;whiteSpace=wrap;rounded=0;fontSize=13;fontColor=#000000;" parent="550" vertex="1">
                    <mxGeometry x="70" y="101.25" width="150" height="30" as="geometry"/>
                </mxCell>
                <mxCell id="161" value="" style="group" parent="550" vertex="1" connectable="0">
                    <mxGeometry x="260" y="170" width="330" height="30" as="geometry"/>
                </mxCell>
                <mxCell id="145" value="&amp;nbsp;Copyright&amp;nbsp; &amp;nbsp; &amp;nbsp;2024 | Developed By &lt;i&gt;Team (2)&lt;/i&gt;" style="text;html=1;align=center;verticalAlign=middle;whiteSpace=wrap;rounded=0;" parent="161" vertex="1">
                    <mxGeometry width="330" height="30" as="geometry"/>
                </mxCell>
                <mxCell id="144" value="" style="strokeColor=#0f0f0f;verticalLabelPosition=bottom;shadow=0;dashed=0;verticalAlign=top;strokeWidth=1;html=1;shape=mxgraph.mockup.misc.copyrightIcon;perimeterSpacing=0;" parent="161" vertex="1">
                    <mxGeometry x="105" y="10" width="10" height="10" as="geometry"/>
                </mxCell>
                <mxCell id="553" value="" style="group" parent="2" vertex="1" connectable="0">
                    <mxGeometry x="540" y="260" width="223" height="260" as="geometry"/>
                </mxCell>
                <mxCell id="62" value="" style="rounded=0;whiteSpace=wrap;html=1;strokeColor=#000000;fontSize=15;fontColor=#000000;fillColor=none;" parent="553" vertex="1">
                    <mxGeometry width="223" height="260" as="geometry"/>
                </mxCell>
                <mxCell id="83" value="Lucky Draw" style="text;html=1;strokeColor=none;fillColor=none;align=left;verticalAlign=middle;whiteSpace=wrap;rounded=0;fontSize=17;fontColor=#000000;fontStyle=1" parent="553" vertex="1">
                    <mxGeometry x="14" y="10" width="136" height="30" as="geometry"/>
                </mxCell>
                <mxCell id="84" value="Game Img" style="rounded=0;whiteSpace=wrap;html=1;strokeColor=none;fontSize=15;fontColor=#333333;fillColor=#f5f5f5;" parent="553" vertex="1">
                    <mxGeometry x="20" y="59" width="90" height="120" as="geometry"/>
                </mxCell>
                <mxCell id="85" value="&lt;div style=&quot;&quot;&gt;&lt;span style=&quot;background-color: initial;&quot;&gt;Game&amp;nbsp;&lt;/span&gt;&lt;span style=&quot;background-color: initial;&quot;&gt;Title&lt;/span&gt;&lt;/div&gt;&lt;div style=&quot;&quot;&gt;&lt;span style=&quot;background-color: initial;&quot;&gt;&lt;font color=&quot;#808080&quot; style=&quot;font-size: 13px;&quot;&gt;Platform&lt;/font&gt;&lt;/span&gt;&lt;/div&gt;" style="text;html=1;strokeColor=none;fillColor=none;align=left;verticalAlign=middle;whiteSpace=wrap;rounded=0;fontSize=15;fontColor=#000000;" parent="553" vertex="1">
                    <mxGeometry x="127.75" y="54" width="71.5" height="40" as="geometry"/>
                </mxCell>
                <mxCell id="122" value="&lt;strike&gt;$99.99&lt;/strike&gt;" style="text;html=1;strokeColor=none;fillColor=none;align=left;verticalAlign=middle;whiteSpace=wrap;rounded=0;fontSize=15;fontColor=#000000;" parent="553" vertex="1">
                    <mxGeometry x="127.75" y="94" width="60" height="30" as="geometry"/>
                </mxCell>
                <mxCell id="123" value="Free" style="text;html=1;strokeColor=none;fillColor=none;align=left;verticalAlign=middle;whiteSpace=wrap;rounded=0;fontSize=21;fontColor=#000000;fontStyle=1" parent="553" vertex="1">
                    <mxGeometry x="127.75" y="124" width="80" height="30" as="geometry"/>
                </mxCell>
                <mxCell id="394" value="&lt;div style=&quot;text-align: center; font-size: 16px;&quot;&gt;&lt;span style=&quot;background-color: initial; font-size: 16px;&quot;&gt;Ends in&amp;nbsp;&amp;nbsp;&lt;/span&gt;&lt;span style=&quot;background-color: initial; font-size: 16px;&quot;&gt;00:00:00&lt;/span&gt;&lt;/div&gt;" style="text;html=1;strokeColor=none;fillColor=none;align=left;verticalAlign=middle;whiteSpace=wrap;rounded=0;fontSize=16;" parent="553" vertex="1">
                    <mxGeometry x="20" y="220" width="167.75" height="30" as="geometry"/>
                </mxCell>
                <mxCell id="395" value="Participate" style="rounded=1;whiteSpace=wrap;html=1;fontSize=13;fontColor=#000000;" parent="553" vertex="1">
                    <mxGeometry x="129.25" y="164" width="70" height="20" as="geometry"/>
                </mxCell>
                <mxCell id="556" value="Elite member only" style="text;html=1;strokeColor=none;fillColor=none;align=left;verticalAlign=middle;whiteSpace=wrap;rounded=0;fontSize=17;fontColor=#000000;fontStyle=1" vertex="1" parent="553">
                    <mxGeometry x="20" y="193" width="176" height="30" as="geometry"/>
                </mxCell>
                <mxCell id="555" value="" style="group" parent="2" vertex="1" connectable="0">
                    <mxGeometry y="180" width="850" height="50" as="geometry"/>
                </mxCell>
                <mxCell id="36" value="" style="rounded=0;whiteSpace=wrap;html=1;strokeColor=default;fontColor=#000000;fillColor=none;" parent="555" vertex="1">
                    <mxGeometry width="850" height="50" as="geometry"/>
                </mxCell>
                <mxCell id="169" value="Trade-in" style="text;html=1;strokeColor=none;fillColor=none;align=center;verticalAlign=middle;whiteSpace=wrap;rounded=0;fontSize=17;" parent="555" vertex="1">
                    <mxGeometry x="294" y="10" width="100" height="30" as="geometry"/>
                </mxCell>
                <mxCell id="355" value="" style="group" parent="555" vertex="1" connectable="0">
                    <mxGeometry x="80" y="10" width="115" height="30" as="geometry"/>
                </mxCell>
                <mxCell id="165" value="All Games" style="text;html=1;strokeColor=none;fillColor=none;align=left;verticalAlign=middle;whiteSpace=wrap;rounded=0;fontSize=17;" parent="355" vertex="1">
                    <mxGeometry width="115" height="30" as="geometry"/>
                </mxCell>
                <mxCell id="166" value="" style="html=1;verticalLabelPosition=bottom;labelBackgroundColor=#ffffff;verticalAlign=top;shadow=0;dashed=0;strokeWidth=2;shape=mxgraph.ios7.misc.down;strokeColor=default;fontSize=15;fontColor=#000000;fillColor=none;container=0;" parent="355" vertex="1">
                    <mxGeometry x="95" y="13.5" width="8" height="3" as="geometry"/>
                </mxCell>
                <mxCell id="389" value="Pricing" style="text;html=1;strokeColor=none;fillColor=none;align=center;verticalAlign=middle;whiteSpace=wrap;rounded=0;fontSize=17;" parent="555" vertex="1">
                    <mxGeometry x="480" y="10" width="100" height="30" as="geometry"/>
                </mxCell>
                <mxCell id="391" value="How it works" style="text;html=1;strokeColor=none;fillColor=none;align=center;verticalAlign=middle;whiteSpace=wrap;rounded=0;fontSize=17;" parent="555" vertex="1">
                    <mxGeometry x="648.75" y="10" width="114" height="30" as="geometry"/>
                </mxCell>
                <mxCell id="95" value="" style="group" parent="1" vertex="1" connectable="0">
                    <mxGeometry x="239" y="1220" width="792" height="70" as="geometry"/>
                </mxCell>
                <mxCell id="96" value="" style="verticalLabelPosition=bottom;shadow=0;dashed=0;align=center;html=1;verticalAlign=top;strokeWidth=1;shape=mxgraph.mockup.markup.line;strokeColor=#999999;fontSize=15;fontColor=#000000;fillColor=none;" parent="95" vertex="1">
                    <mxGeometry y="5" width="310" height="20" as="geometry"/>
                </mxCell>
                <mxCell id="97" value="Trending Titles" style="text;html=1;strokeColor=none;fillColor=none;align=center;verticalAlign=middle;whiteSpace=wrap;rounded=0;fontSize=15;fontColor=#000000;" parent="95" vertex="1">
                    <mxGeometry x="295" width="200" height="30" as="geometry"/>
                </mxCell>
                <mxCell id="98" value="" style="verticalLabelPosition=bottom;shadow=0;dashed=0;align=center;html=1;verticalAlign=top;strokeWidth=1;shape=mxgraph.mockup.markup.line;strokeColor=#999999;fontSize=15;fontColor=#000000;fillColor=none;" parent="95" vertex="1">
                    <mxGeometry x="482" y="5" width="310" height="20" as="geometry"/>
                </mxCell>
                <mxCell id="326" value="" style="group" parent="1" vertex="1" connectable="0">
                    <mxGeometry x="270" y="1540" width="726" height="199" as="geometry"/>
                </mxCell>
                <mxCell id="327" value="" style="html=1;verticalLabelPosition=bottom;labelBackgroundColor=#ffffff;verticalAlign=top;shadow=0;dashed=0;strokeWidth=2;shape=mxgraph.ios7.misc.left;strokeColor=#000000;fontSize=15;fontColor=#000000;fillColor=none;" parent="326" vertex="1">
                    <mxGeometry y="67" width="6" height="12" as="geometry"/>
                </mxCell>
                <mxCell id="328" value="" style="html=1;verticalLabelPosition=bottom;labelBackgroundColor=#ffffff;verticalAlign=top;shadow=0;dashed=0;strokeWidth=2;shape=mxgraph.ios7.misc.right;strokeColor=#000000;fontSize=15;fontColor=#000000;fillColor=none;" parent="326" vertex="1">
                    <mxGeometry x="720" y="67" width="6" height="12" as="geometry"/>
                </mxCell>
                <mxCell id="329" value="" style="group" parent="326" vertex="1" connectable="0">
                    <mxGeometry x="58.25" width="98.5" height="199" as="geometry"/>
                </mxCell>
                <mxCell id="330" value="&lt;font style=&quot;font-size: 14px;&quot;&gt;Rent&lt;/font&gt;" style="rounded=1;whiteSpace=wrap;html=1;fontSize=17;" parent="329" vertex="1">
                    <mxGeometry x="16.75" y="179" width="65" height="20" as="geometry"/>
                </mxCell>
                <mxCell id="331" value="Game Img" style="rounded=0;whiteSpace=wrap;html=1;strokeColor=none;fontSize=15;fontColor=#333333;fillColor=#f5f5f5;" parent="329" vertex="1">
                    <mxGeometry width="98.5" height="130" as="geometry"/>
                </mxCell>
                <mxCell id="332" value="Game Title" style="text;html=1;strokeColor=none;fillColor=none;align=center;verticalAlign=middle;whiteSpace=wrap;rounded=0;fontSize=15;fontColor=#000000;" parent="329" vertex="1">
                    <mxGeometry x="3.5" y="130" width="91.5" height="30" as="geometry"/>
                </mxCell>
                <mxCell id="333" value="Platform" style="text;html=1;strokeColor=none;fillColor=none;align=center;verticalAlign=middle;whiteSpace=wrap;rounded=0;fontSize=13;fontColor=#808080;" parent="329" vertex="1">
                    <mxGeometry x="3.5" y="150" width="91.5" height="30" as="geometry"/>
                </mxCell>
                <mxCell id="334" value="" style="group" parent="326" vertex="1" connectable="0">
                    <mxGeometry x="555.5" width="98.5" height="199" as="geometry"/>
                </mxCell>
                <mxCell id="335" value="&lt;font style=&quot;font-size: 14px;&quot;&gt;Rent&lt;/font&gt;" style="rounded=1;whiteSpace=wrap;html=1;fontSize=17;" parent="334" vertex="1">
                    <mxGeometry x="16.75" y="179" width="65" height="20" as="geometry"/>
                </mxCell>
                <mxCell id="336" value="Game Img" style="rounded=0;whiteSpace=wrap;html=1;strokeColor=none;fontSize=15;fontColor=#333333;fillColor=#f5f5f5;" parent="334" vertex="1">
                    <mxGeometry width="98.5" height="130" as="geometry"/>
                </mxCell>
                <mxCell id="337" value="Game Title" style="text;html=1;strokeColor=none;fillColor=none;align=center;verticalAlign=middle;whiteSpace=wrap;rounded=0;fontSize=15;fontColor=#000000;" parent="334" vertex="1">
                    <mxGeometry x="3.5" y="130" width="91.5" height="30" as="geometry"/>
                </mxCell>
                <mxCell id="338" value="Platform" style="text;html=1;strokeColor=none;fillColor=none;align=center;verticalAlign=middle;whiteSpace=wrap;rounded=0;fontSize=13;fontColor=#808080;" parent="334" vertex="1">
                    <mxGeometry x="3.5" y="150" width="91.5" height="30" as="geometry"/>
                </mxCell>
                <mxCell id="339" value="" style="group" parent="326" vertex="1" connectable="0">
                    <mxGeometry x="224" width="98.5" height="199" as="geometry"/>
                </mxCell>
                <mxCell id="340" value="&lt;font style=&quot;font-size: 14px;&quot;&gt;Rent&lt;/font&gt;" style="rounded=1;whiteSpace=wrap;html=1;fontSize=17;" parent="339" vertex="1">
                    <mxGeometry x="16.75" y="179" width="65" height="20" as="geometry"/>
                </mxCell>
                <mxCell id="341" value="Game Img" style="rounded=0;whiteSpace=wrap;html=1;strokeColor=none;fontSize=15;fontColor=#333333;fillColor=#f5f5f5;" parent="339" vertex="1">
                    <mxGeometry width="98.5" height="130" as="geometry"/>
                </mxCell>
                <mxCell id="342" value="Game Title" style="text;html=1;strokeColor=none;fillColor=none;align=center;verticalAlign=middle;whiteSpace=wrap;rounded=0;fontSize=15;fontColor=#000000;" parent="339" vertex="1">
                    <mxGeometry x="3.5" y="130" width="91.5" height="30" as="geometry"/>
                </mxCell>
                <mxCell id="343" value="Platform" style="text;html=1;strokeColor=none;fillColor=none;align=center;verticalAlign=middle;whiteSpace=wrap;rounded=0;fontSize=13;fontColor=#808080;" parent="339" vertex="1">
                    <mxGeometry x="3.5" y="150" width="91.5" height="30" as="geometry"/>
                </mxCell>
                <mxCell id="344" value="" style="group" parent="326" vertex="1" connectable="0">
                    <mxGeometry x="390" width="98.5" height="199" as="geometry"/>
                </mxCell>
                <mxCell id="345" value="&lt;font style=&quot;font-size: 14px;&quot;&gt;Rent&lt;/font&gt;" style="rounded=1;whiteSpace=wrap;html=1;fontSize=17;" parent="344" vertex="1">
                    <mxGeometry x="16.75" y="179" width="65" height="20" as="geometry"/>
                </mxCell>
                <mxCell id="346" value="Game Img" style="rounded=0;whiteSpace=wrap;html=1;strokeColor=none;fontSize=15;fontColor=#333333;fillColor=#f5f5f5;" parent="344" vertex="1">
                    <mxGeometry width="98.5" height="130" as="geometry"/>
                </mxCell>
                <mxCell id="347" value="Game Title" style="text;html=1;strokeColor=none;fillColor=none;align=center;verticalAlign=middle;whiteSpace=wrap;rounded=0;fontSize=15;fontColor=#000000;" parent="344" vertex="1">
                    <mxGeometry x="3.5" y="130" width="91.5" height="30" as="geometry"/>
                </mxCell>
                <mxCell id="348" value="Platform" style="text;html=1;strokeColor=none;fillColor=none;align=center;verticalAlign=middle;whiteSpace=wrap;rounded=0;fontSize=13;fontColor=#808080;" parent="344" vertex="1">
                    <mxGeometry x="3.5" y="150" width="91.5" height="30" as="geometry"/>
                </mxCell>
                <mxCell id="349" value="" style="group" parent="1" vertex="1" connectable="0">
                    <mxGeometry x="239" y="1490" width="792" height="70" as="geometry"/>
                </mxCell>
                <mxCell id="350" value="" style="verticalLabelPosition=bottom;shadow=0;dashed=0;align=center;html=1;verticalAlign=top;strokeWidth=1;shape=mxgraph.mockup.markup.line;strokeColor=#999999;fontSize=15;fontColor=#000000;fillColor=none;" parent="349" vertex="1">
                    <mxGeometry y="5" width="310" height="20" as="geometry"/>
                </mxCell>
                <mxCell id="351" value="New Releases" style="text;html=1;strokeColor=none;fillColor=none;align=center;verticalAlign=middle;whiteSpace=wrap;rounded=0;fontSize=15;fontColor=#000000;" parent="349" vertex="1">
                    <mxGeometry x="295" width="200" height="30" as="geometry"/>
                </mxCell>
                <mxCell id="352" value="" style="verticalLabelPosition=bottom;shadow=0;dashed=0;align=center;html=1;verticalAlign=top;strokeWidth=1;shape=mxgraph.mockup.markup.line;strokeColor=#999999;fontSize=15;fontColor=#000000;fillColor=none;" parent="349" vertex="1">
                    <mxGeometry x="482" y="5" width="310" height="20" as="geometry"/>
                </mxCell>
                <mxCell id="359" value="" style="group" parent="1" vertex="1" connectable="0">
                    <mxGeometry x="270" y="1810" width="726" height="199" as="geometry"/>
                </mxCell>
                <mxCell id="360" value="" style="html=1;verticalLabelPosition=bottom;labelBackgroundColor=#ffffff;verticalAlign=top;shadow=0;dashed=0;strokeWidth=2;shape=mxgraph.ios7.misc.left;strokeColor=#000000;fontSize=15;fontColor=#000000;fillColor=none;" parent="359" vertex="1">
                    <mxGeometry y="67" width="6" height="12" as="geometry"/>
                </mxCell>
                <mxCell id="361" value="" style="html=1;verticalLabelPosition=bottom;labelBackgroundColor=#ffffff;verticalAlign=top;shadow=0;dashed=0;strokeWidth=2;shape=mxgraph.ios7.misc.right;strokeColor=#000000;fontSize=15;fontColor=#000000;fillColor=none;" parent="359" vertex="1">
                    <mxGeometry x="720" y="67" width="6" height="12" as="geometry"/>
                </mxCell>
                <mxCell id="362" value="" style="group" parent="359" vertex="1" connectable="0">
                    <mxGeometry x="58.25" width="98.5" height="199" as="geometry"/>
                </mxCell>
                <mxCell id="363" value="&lt;font style=&quot;font-size: 14px;&quot;&gt;Reserve&lt;/font&gt;" style="rounded=1;whiteSpace=wrap;html=1;fontSize=17;" parent="362" vertex="1">
                    <mxGeometry x="16.75" y="179" width="65" height="20" as="geometry"/>
                </mxCell>
                <mxCell id="364" value="Game Img" style="rounded=0;whiteSpace=wrap;html=1;strokeColor=none;fontSize=15;fontColor=#333333;fillColor=#f5f5f5;" parent="362" vertex="1">
                    <mxGeometry width="98.5" height="130" as="geometry"/>
                </mxCell>
                <mxCell id="365" value="Game Title" style="text;html=1;strokeColor=none;fillColor=none;align=center;verticalAlign=middle;whiteSpace=wrap;rounded=0;fontSize=15;fontColor=#000000;" parent="362" vertex="1">
                    <mxGeometry x="3.5" y="130" width="91.5" height="30" as="geometry"/>
                </mxCell>
                <mxCell id="366" value="Platform" style="text;html=1;strokeColor=none;fillColor=none;align=center;verticalAlign=middle;whiteSpace=wrap;rounded=0;fontSize=13;fontColor=#808080;" parent="362" vertex="1">
                    <mxGeometry x="3.5" y="150" width="91.5" height="30" as="geometry"/>
                </mxCell>
                <mxCell id="367" value="" style="group" parent="359" vertex="1" connectable="0">
                    <mxGeometry x="555.5" width="98.5" height="199" as="geometry"/>
                </mxCell>
                <mxCell id="368" value="&lt;font style=&quot;font-size: 14px;&quot;&gt;Reserve&lt;/font&gt;" style="rounded=1;whiteSpace=wrap;html=1;fontSize=17;" parent="367" vertex="1">
                    <mxGeometry x="16.75" y="179" width="65" height="20" as="geometry"/>
                </mxCell>
                <mxCell id="369" value="Game Img" style="rounded=0;whiteSpace=wrap;html=1;strokeColor=none;fontSize=15;fontColor=#333333;fillColor=#f5f5f5;" parent="367" vertex="1">
                    <mxGeometry width="98.5" height="130" as="geometry"/>
                </mxCell>
                <mxCell id="370" value="Game Title" style="text;html=1;strokeColor=none;fillColor=none;align=center;verticalAlign=middle;whiteSpace=wrap;rounded=0;fontSize=15;fontColor=#000000;" parent="367" vertex="1">
                    <mxGeometry x="3.5" y="130" width="91.5" height="30" as="geometry"/>
                </mxCell>
                <mxCell id="371" value="Platform" style="text;html=1;strokeColor=none;fillColor=none;align=center;verticalAlign=middle;whiteSpace=wrap;rounded=0;fontSize=13;fontColor=#808080;" parent="367" vertex="1">
                    <mxGeometry x="3.5" y="150" width="91.5" height="30" as="geometry"/>
                </mxCell>
                <mxCell id="372" value="" style="group" parent="359" vertex="1" connectable="0">
                    <mxGeometry x="224" width="98.5" height="199" as="geometry"/>
                </mxCell>
                <mxCell id="373" value="&lt;font style=&quot;font-size: 14px;&quot;&gt;Reserve&lt;/font&gt;" style="rounded=1;whiteSpace=wrap;html=1;fontSize=17;" parent="372" vertex="1">
                    <mxGeometry x="16.75" y="179" width="65" height="20" as="geometry"/>
                </mxCell>
                <mxCell id="374" value="Game Img" style="rounded=0;whiteSpace=wrap;html=1;strokeColor=none;fontSize=15;fontColor=#333333;fillColor=#f5f5f5;" parent="372" vertex="1">
                    <mxGeometry width="98.5" height="130" as="geometry"/>
                </mxCell>
                <mxCell id="375" value="Game Title" style="text;html=1;strokeColor=none;fillColor=none;align=center;verticalAlign=middle;whiteSpace=wrap;rounded=0;fontSize=15;fontColor=#000000;" parent="372" vertex="1">
                    <mxGeometry x="3.5" y="130" width="91.5" height="30" as="geometry"/>
                </mxCell>
                <mxCell id="376" value="Platform" style="text;html=1;strokeColor=none;fillColor=none;align=center;verticalAlign=middle;whiteSpace=wrap;rounded=0;fontSize=13;fontColor=#808080;" parent="372" vertex="1">
                    <mxGeometry x="3.5" y="150" width="91.5" height="30" as="geometry"/>
                </mxCell>
                <mxCell id="377" value="" style="group" parent="359" vertex="1" connectable="0">
                    <mxGeometry x="390" width="98.5" height="199" as="geometry"/>
                </mxCell>
                <mxCell id="378" value="&lt;font style=&quot;font-size: 14px;&quot;&gt;Reserve&lt;/font&gt;" style="rounded=1;whiteSpace=wrap;html=1;fontSize=17;" parent="377" vertex="1">
                    <mxGeometry x="16.75" y="179" width="65" height="20" as="geometry"/>
                </mxCell>
                <mxCell id="379" value="Game Img" style="rounded=0;whiteSpace=wrap;html=1;strokeColor=none;fontSize=15;fontColor=#333333;fillColor=#f5f5f5;" parent="377" vertex="1">
                    <mxGeometry width="98.5" height="130" as="geometry"/>
                </mxCell>
                <mxCell id="380" value="Game Title" style="text;html=1;strokeColor=none;fillColor=none;align=center;verticalAlign=middle;whiteSpace=wrap;rounded=0;fontSize=15;fontColor=#000000;" parent="377" vertex="1">
                    <mxGeometry x="3.5" y="130" width="91.5" height="30" as="geometry"/>
                </mxCell>
                <mxCell id="381" value="Platform" style="text;html=1;strokeColor=none;fillColor=none;align=center;verticalAlign=middle;whiteSpace=wrap;rounded=0;fontSize=13;fontColor=#808080;" parent="377" vertex="1">
                    <mxGeometry x="3.5" y="150" width="91.5" height="30" as="geometry"/>
                </mxCell>
                <mxCell id="382" value="" style="group" parent="1" vertex="1" connectable="0">
                    <mxGeometry x="239" y="1760" width="792" height="70" as="geometry"/>
                </mxCell>
                <mxCell id="383" value="" style="verticalLabelPosition=bottom;shadow=0;dashed=0;align=center;html=1;verticalAlign=top;strokeWidth=1;shape=mxgraph.mockup.markup.line;strokeColor=#999999;fontSize=15;fontColor=#000000;fillColor=none;" parent="382" vertex="1">
                    <mxGeometry y="5" width="310" height="20" as="geometry"/>
                </mxCell>
                <mxCell id="384" value="Coming Soon" style="text;html=1;strokeColor=none;fillColor=none;align=center;verticalAlign=middle;whiteSpace=wrap;rounded=0;fontSize=15;fontColor=#000000;" parent="382" vertex="1">
                    <mxGeometry x="295" width="200" height="30" as="geometry"/>
                </mxCell>
                <mxCell id="385" value="" style="verticalLabelPosition=bottom;shadow=0;dashed=0;align=center;html=1;verticalAlign=top;strokeWidth=1;shape=mxgraph.mockup.markup.line;strokeColor=#999999;fontSize=15;fontColor=#000000;fillColor=none;" parent="382" vertex="1">
                    <mxGeometry x="482" y="5" width="310" height="20" as="geometry"/>
                </mxCell>
                <mxCell id="415" value="" style="rounded=0;whiteSpace=wrap;html=1;fontSize=13;" parent="1" vertex="1">
                    <mxGeometry x="1100" y="590" width="360" height="2290" as="geometry"/>
                </mxCell>
                <mxCell id="428" value="" style="group" parent="1" vertex="1" connectable="0">
                    <mxGeometry x="1130" y="670" width="330" height="50" as="geometry"/>
                </mxCell>
                <mxCell id="429" value="" style="html=1;verticalLabelPosition=bottom;align=center;labelBackgroundColor=#ffffff;verticalAlign=top;strokeWidth=2;strokeColor=#000000;shadow=0;dashed=0;shape=mxgraph.ios7.icons.looking_glass;fontSize=15;fontColor=#000000;fillColor=none;" parent="428" vertex="1">
                    <mxGeometry x="270" y="4.939999999999998" width="20" height="20.12" as="geometry"/>
                </mxCell>
                <mxCell id="430" value="&amp;nbsp; Search" style="rounded=1;whiteSpace=wrap;html=1;strokeColor=#000000;fontSize=15;fontColor=#000000;fillColor=none;align=left;" parent="428" vertex="1">
                    <mxGeometry width="300" height="30" as="geometry"/>
                </mxCell>
                <mxCell id="431" value="" style="rounded=0;whiteSpace=wrap;html=1;strokeColor=default;fontSize=13;fontColor=#000000;fillColor=none;" parent="428" vertex="1">
                    <mxGeometry x="-30" y="-10" width="360" height="50" as="geometry"/>
                </mxCell>
                <mxCell id="432" value="Carousel&lt;br&gt;new release / comming soon" style="rounded=0;whiteSpace=wrap;html=1;strokeColor=default;fontSize=15;fontColor=#000000;fillColor=none;" parent="1" vertex="1">
                    <mxGeometry x="1110" y="730" width="338.46" height="200" as="geometry"/>
                </mxCell>
                <mxCell id="457" value="XBOX&lt;span style=&quot;color: rgba(0, 0, 0, 0); font-family: monospace; font-size: 0px; text-align: start;&quot;&gt;%3CmxGraphModel%3E%3Croot%3E%3CmxCell%20id%3D%220%22%2F%3E%3CmxCell%20id%3D%221%22%20parent%3D%220%22%2F%3E%3CmxCell%20id%3D%222%22%20value%3D%22Game%20Img%22%20style%3D%22rounded%3D0%3BwhiteSpace%3Dwrap%3Bhtml%3D1%3BstrokeColor%3Dnone%3BfontSize%3D15%3BfontColor%3D%23333333%3BfillColor%3D%23f5f5f5%3B%22%20vertex%3D%221%22%20parent%3D%221%22%3E%3CmxGeometry%20x%3D%22560%22%20y%3D%22310%22%20width%3D%2298.5%22%20height%3D%22130%22%20as%3D%22geometry%22%2F%3E%3C%2FmxCell%3E%3C%2Froot%3E%3C%2FmxGraphModel%3E&lt;/span&gt;" style="rounded=0;whiteSpace=wrap;html=1;strokeColor=none;fontSize=15;fontColor=#333333;fillColor=#f5f5f5;" parent="1" vertex="1">
                    <mxGeometry x="1140" y="1292" width="80" height="80" as="geometry"/>
                </mxCell>
                <mxCell id="458" value="PlayStation" style="rounded=0;whiteSpace=wrap;html=1;strokeColor=none;fontSize=15;fontColor=#333333;fillColor=#f5f5f5;" parent="1" vertex="1">
                    <mxGeometry x="1240" y="1292" width="80" height="80" as="geometry"/>
                </mxCell>
                <mxCell id="459" value="Nintendo" style="rounded=0;whiteSpace=wrap;html=1;strokeColor=none;fontSize=15;fontColor=#333333;fillColor=#f5f5f5;" parent="1" vertex="1">
                    <mxGeometry x="1340" y="1292" width="80" height="80" as="geometry"/>
                </mxCell>
                <mxCell id="483" value="" style="group" parent="1" vertex="1" connectable="0">
                    <mxGeometry x="1110" y="1400" width="340" height="70" as="geometry"/>
                </mxCell>
                <mxCell id="484" value="" style="verticalLabelPosition=bottom;shadow=0;dashed=0;align=center;html=1;verticalAlign=top;strokeWidth=1;shape=mxgraph.mockup.markup.line;strokeColor=#999999;fontSize=15;fontColor=#000000;fillColor=none;" parent="483" vertex="1">
                    <mxGeometry y="5" width="110" height="20" as="geometry"/>
                </mxCell>
                <mxCell id="485" value="Trending Titles" style="text;html=1;strokeColor=none;fillColor=none;align=center;verticalAlign=middle;whiteSpace=wrap;rounded=0;fontSize=15;fontColor=#000000;" parent="483" vertex="1">
                    <mxGeometry x="113.32" width="113.36" height="30" as="geometry"/>
                </mxCell>
                <mxCell id="486" value="" style="verticalLabelPosition=bottom;shadow=0;dashed=0;align=center;html=1;verticalAlign=top;strokeWidth=1;shape=mxgraph.mockup.markup.line;strokeColor=#999999;fontSize=15;fontColor=#000000;fillColor=none;" parent="483" vertex="1">
                    <mxGeometry x="230" y="5" width="110" height="20" as="geometry"/>
                </mxCell>
                <mxCell id="487" value="" style="group" parent="1" vertex="1" connectable="0">
                    <mxGeometry x="1110" y="1240" width="340" height="70" as="geometry"/>
                </mxCell>
                <mxCell id="488" value="" style="verticalLabelPosition=bottom;shadow=0;dashed=0;align=center;html=1;verticalAlign=top;strokeWidth=1;shape=mxgraph.mockup.markup.line;strokeColor=#999999;fontSize=15;fontColor=#000000;fillColor=none;" parent="487" vertex="1">
                    <mxGeometry y="5" width="90" height="20" as="geometry"/>
                </mxCell>
                <mxCell id="489" value="Browse by Platform" style="text;html=1;strokeColor=none;fillColor=none;align=center;verticalAlign=middle;whiteSpace=wrap;rounded=0;fontSize=15;fontColor=#000000;" parent="487" vertex="1">
                    <mxGeometry x="96.66" width="146.68" height="30" as="geometry"/>
                </mxCell>
                <mxCell id="490" value="" style="verticalLabelPosition=bottom;shadow=0;dashed=0;align=center;html=1;verticalAlign=top;strokeWidth=1;shape=mxgraph.mockup.markup.line;strokeColor=#999999;fontSize=15;fontColor=#000000;fillColor=none;" parent="487" vertex="1">
                    <mxGeometry x="250" y="5" width="90" height="20" as="geometry"/>
                </mxCell>
                <mxCell id="491" value="" style="group" parent="1" vertex="1" connectable="0">
                    <mxGeometry x="1130" y="1450" width="298" height="199" as="geometry"/>
                </mxCell>
                <mxCell id="461" value="" style="html=1;verticalLabelPosition=bottom;labelBackgroundColor=#ffffff;verticalAlign=top;shadow=0;dashed=0;strokeWidth=2;shape=mxgraph.ios7.misc.left;strokeColor=#000000;fontSize=15;fontColor=#000000;fillColor=none;container=0;" parent="491" vertex="1">
                    <mxGeometry y="67" width="6" height="12" as="geometry"/>
                </mxCell>
                <mxCell id="462" value="" style="html=1;verticalLabelPosition=bottom;labelBackgroundColor=#ffffff;verticalAlign=top;shadow=0;dashed=0;strokeWidth=2;shape=mxgraph.ios7.misc.right;strokeColor=#000000;fontSize=15;fontColor=#000000;fillColor=none;container=0;" parent="491" vertex="1">
                    <mxGeometry x="292" y="67" width="6" height="12" as="geometry"/>
                </mxCell>
                <mxCell id="464" value="&lt;font style=&quot;font-size: 14px;&quot;&gt;Rent&lt;/font&gt;" style="rounded=1;whiteSpace=wrap;html=1;fontSize=17;container=0;" parent="491" vertex="1">
                    <mxGeometry x="46.629999999999995" y="179" width="65" height="20" as="geometry"/>
                </mxCell>
                <mxCell id="465" value="Game Img" style="rounded=0;whiteSpace=wrap;html=1;strokeColor=none;fontSize=15;fontColor=#333333;fillColor=#f5f5f5;container=0;" parent="491" vertex="1">
                    <mxGeometry x="29.879999999999995" width="98.5" height="130" as="geometry"/>
                </mxCell>
                <mxCell id="466" value="Game Title" style="text;html=1;strokeColor=none;fillColor=none;align=center;verticalAlign=middle;whiteSpace=wrap;rounded=0;fontSize=15;fontColor=#000000;container=0;" parent="491" vertex="1">
                    <mxGeometry x="33.379999999999995" y="130" width="91.5" height="30" as="geometry"/>
                </mxCell>
                <mxCell id="467" value="Platform" style="text;html=1;strokeColor=none;fillColor=none;align=center;verticalAlign=middle;whiteSpace=wrap;rounded=0;fontSize=13;fontColor=#808080;container=0;" parent="491" vertex="1">
                    <mxGeometry x="33.379999999999995" y="150" width="91.5" height="30" as="geometry"/>
                </mxCell>
                <mxCell id="474" value="&lt;font style=&quot;font-size: 14px;&quot;&gt;Rent&lt;/font&gt;" style="rounded=1;whiteSpace=wrap;html=1;fontSize=17;container=0;" parent="491" vertex="1">
                    <mxGeometry x="185.75" y="179" width="65" height="20" as="geometry"/>
                </mxCell>
                <mxCell id="475" value="Game Img" style="rounded=0;whiteSpace=wrap;html=1;strokeColor=none;fontSize=15;fontColor=#333333;fillColor=#f5f5f5;container=0;" parent="491" vertex="1">
                    <mxGeometry x="169" width="98.5" height="130" as="geometry"/>
                </mxCell>
                <mxCell id="476" value="Game Title" style="text;html=1;strokeColor=none;fillColor=none;align=center;verticalAlign=middle;whiteSpace=wrap;rounded=0;fontSize=15;fontColor=#000000;container=0;" parent="491" vertex="1">
                    <mxGeometry x="172.5" y="130" width="91.5" height="30" as="geometry"/>
                </mxCell>
                <mxCell id="477" value="Platform" style="text;html=1;strokeColor=none;fillColor=none;align=center;verticalAlign=middle;whiteSpace=wrap;rounded=0;fontSize=13;fontColor=#808080;container=0;" parent="491" vertex="1">
                    <mxGeometry x="172.5" y="150" width="91.5" height="30" as="geometry"/>
                </mxCell>
                <mxCell id="492" value="" style="group" parent="1" vertex="1" connectable="0">
                    <mxGeometry x="1110" y="1680" width="340" height="70" as="geometry"/>
                </mxCell>
                <mxCell id="493" value="" style="verticalLabelPosition=bottom;shadow=0;dashed=0;align=center;html=1;verticalAlign=top;strokeWidth=1;shape=mxgraph.mockup.markup.line;strokeColor=#999999;fontSize=15;fontColor=#000000;fillColor=none;" parent="492" vertex="1">
                    <mxGeometry y="5" width="110" height="20" as="geometry"/>
                </mxCell>
                <mxCell id="494" value="New Releases" style="text;html=1;strokeColor=none;fillColor=none;align=center;verticalAlign=middle;whiteSpace=wrap;rounded=0;fontSize=15;fontColor=#000000;" parent="492" vertex="1">
                    <mxGeometry x="113.32" width="113.36" height="30" as="geometry"/>
                </mxCell>
                <mxCell id="495" value="" style="verticalLabelPosition=bottom;shadow=0;dashed=0;align=center;html=1;verticalAlign=top;strokeWidth=1;shape=mxgraph.mockup.markup.line;strokeColor=#999999;fontSize=15;fontColor=#000000;fillColor=none;" parent="492" vertex="1">
                    <mxGeometry x="230" y="5" width="110" height="20" as="geometry"/>
                </mxCell>
                <mxCell id="496" value="" style="group" parent="1" vertex="1" connectable="0">
                    <mxGeometry x="1130" y="1730" width="298" height="199" as="geometry"/>
                </mxCell>
                <mxCell id="497" value="" style="html=1;verticalLabelPosition=bottom;labelBackgroundColor=#ffffff;verticalAlign=top;shadow=0;dashed=0;strokeWidth=2;shape=mxgraph.ios7.misc.left;strokeColor=#000000;fontSize=15;fontColor=#000000;fillColor=none;container=0;" parent="496" vertex="1">
                    <mxGeometry y="67" width="6" height="12" as="geometry"/>
                </mxCell>
                <mxCell id="498" value="" style="html=1;verticalLabelPosition=bottom;labelBackgroundColor=#ffffff;verticalAlign=top;shadow=0;dashed=0;strokeWidth=2;shape=mxgraph.ios7.misc.right;strokeColor=#000000;fontSize=15;fontColor=#000000;fillColor=none;container=0;" parent="496" vertex="1">
                    <mxGeometry x="292" y="67" width="6" height="12" as="geometry"/>
                </mxCell>
                <mxCell id="499" value="&lt;font style=&quot;font-size: 14px;&quot;&gt;Rent&lt;/font&gt;" style="rounded=1;whiteSpace=wrap;html=1;fontSize=17;container=0;" parent="496" vertex="1">
                    <mxGeometry x="46.629999999999995" y="179" width="65" height="20" as="geometry"/>
                </mxCell>
                <mxCell id="500" value="Game Img" style="rounded=0;whiteSpace=wrap;html=1;strokeColor=none;fontSize=15;fontColor=#333333;fillColor=#f5f5f5;container=0;" parent="496" vertex="1">
                    <mxGeometry x="29.879999999999995" width="98.5" height="130" as="geometry"/>
                </mxCell>
                <mxCell id="501" value="Game Title" style="text;html=1;strokeColor=none;fillColor=none;align=center;verticalAlign=middle;whiteSpace=wrap;rounded=0;fontSize=15;fontColor=#000000;container=0;" parent="496" vertex="1">
                    <mxGeometry x="33.379999999999995" y="130" width="91.5" height="30" as="geometry"/>
                </mxCell>
                <mxCell id="502" value="Platform" style="text;html=1;strokeColor=none;fillColor=none;align=center;verticalAlign=middle;whiteSpace=wrap;rounded=0;fontSize=13;fontColor=#808080;container=0;" parent="496" vertex="1">
                    <mxGeometry x="33.379999999999995" y="150" width="91.5" height="30" as="geometry"/>
                </mxCell>
                <mxCell id="503" value="&lt;font style=&quot;font-size: 14px;&quot;&gt;Rent&lt;/font&gt;" style="rounded=1;whiteSpace=wrap;html=1;fontSize=17;container=0;" parent="496" vertex="1">
                    <mxGeometry x="185.75" y="179" width="65" height="20" as="geometry"/>
                </mxCell>
                <mxCell id="504" value="Game Img" style="rounded=0;whiteSpace=wrap;html=1;strokeColor=none;fontSize=15;fontColor=#333333;fillColor=#f5f5f5;container=0;" parent="496" vertex="1">
                    <mxGeometry x="169" width="98.5" height="130" as="geometry"/>
                </mxCell>
                <mxCell id="505" value="Game Title" style="text;html=1;strokeColor=none;fillColor=none;align=center;verticalAlign=middle;whiteSpace=wrap;rounded=0;fontSize=15;fontColor=#000000;container=0;" parent="496" vertex="1">
                    <mxGeometry x="172.5" y="130" width="91.5" height="30" as="geometry"/>
                </mxCell>
                <mxCell id="506" value="Platform" style="text;html=1;strokeColor=none;fillColor=none;align=center;verticalAlign=middle;whiteSpace=wrap;rounded=0;fontSize=13;fontColor=#808080;container=0;" parent="496" vertex="1">
                    <mxGeometry x="172.5" y="150" width="91.5" height="30" as="geometry"/>
                </mxCell>
                <mxCell id="507" value="" style="group" parent="1" vertex="1" connectable="0">
                    <mxGeometry x="1110" y="1950" width="340" height="70" as="geometry"/>
                </mxCell>
                <mxCell id="508" value="" style="verticalLabelPosition=bottom;shadow=0;dashed=0;align=center;html=1;verticalAlign=top;strokeWidth=1;shape=mxgraph.mockup.markup.line;strokeColor=#999999;fontSize=15;fontColor=#000000;fillColor=none;" parent="507" vertex="1">
                    <mxGeometry y="5" width="110" height="20" as="geometry"/>
                </mxCell>
                <mxCell id="509" value="Coming Soon" style="text;html=1;strokeColor=none;fillColor=none;align=center;verticalAlign=middle;whiteSpace=wrap;rounded=0;fontSize=15;fontColor=#000000;" parent="507" vertex="1">
                    <mxGeometry x="113.32" width="113.36" height="30" as="geometry"/>
                </mxCell>
                <mxCell id="510" value="" style="verticalLabelPosition=bottom;shadow=0;dashed=0;align=center;html=1;verticalAlign=top;strokeWidth=1;shape=mxgraph.mockup.markup.line;strokeColor=#999999;fontSize=15;fontColor=#000000;fillColor=none;" parent="507" vertex="1">
                    <mxGeometry x="230" y="5" width="110" height="20" as="geometry"/>
                </mxCell>
                <mxCell id="511" value="" style="group" parent="1" vertex="1" connectable="0">
                    <mxGeometry x="1130" y="2000" width="298" height="199" as="geometry"/>
                </mxCell>
                <mxCell id="512" value="" style="html=1;verticalLabelPosition=bottom;labelBackgroundColor=#ffffff;verticalAlign=top;shadow=0;dashed=0;strokeWidth=2;shape=mxgraph.ios7.misc.left;strokeColor=#000000;fontSize=15;fontColor=#000000;fillColor=none;container=0;" parent="511" vertex="1">
                    <mxGeometry y="67" width="6" height="12" as="geometry"/>
                </mxCell>
                <mxCell id="513" value="" style="html=1;verticalLabelPosition=bottom;labelBackgroundColor=#ffffff;verticalAlign=top;shadow=0;dashed=0;strokeWidth=2;shape=mxgraph.ios7.misc.right;strokeColor=#000000;fontSize=15;fontColor=#000000;fillColor=none;container=0;" parent="511" vertex="1">
                    <mxGeometry x="292" y="67" width="6" height="12" as="geometry"/>
                </mxCell>
                <mxCell id="514" value="&lt;font style=&quot;font-size: 14px;&quot;&gt;Reserve&lt;/font&gt;" style="rounded=1;whiteSpace=wrap;html=1;fontSize=17;container=0;" parent="511" vertex="1">
                    <mxGeometry x="46.629999999999995" y="179" width="65" height="20" as="geometry"/>
                </mxCell>
                <mxCell id="515" value="Game Img" style="rounded=0;whiteSpace=wrap;html=1;strokeColor=none;fontSize=15;fontColor=#333333;fillColor=#f5f5f5;container=0;" parent="511" vertex="1">
                    <mxGeometry x="29.879999999999995" width="98.5" height="130" as="geometry"/>
                </mxCell>
                <mxCell id="516" value="Game Title" style="text;html=1;strokeColor=none;fillColor=none;align=center;verticalAlign=middle;whiteSpace=wrap;rounded=0;fontSize=15;fontColor=#000000;container=0;" parent="511" vertex="1">
                    <mxGeometry x="33.379999999999995" y="130" width="91.5" height="30" as="geometry"/>
                </mxCell>
                <mxCell id="517" value="Platform" style="text;html=1;strokeColor=none;fillColor=none;align=center;verticalAlign=middle;whiteSpace=wrap;rounded=0;fontSize=13;fontColor=#808080;container=0;" parent="511" vertex="1">
                    <mxGeometry x="33.379999999999995" y="150" width="91.5" height="30" as="geometry"/>
                </mxCell>
                <mxCell id="518" value="&lt;font style=&quot;font-size: 14px;&quot;&gt;Reserve&lt;/font&gt;" style="rounded=1;whiteSpace=wrap;html=1;fontSize=17;container=0;" parent="511" vertex="1">
                    <mxGeometry x="185.75" y="179" width="65" height="20" as="geometry"/>
                </mxCell>
                <mxCell id="519" value="Game Img" style="rounded=0;whiteSpace=wrap;html=1;strokeColor=none;fontSize=15;fontColor=#333333;fillColor=#f5f5f5;container=0;" parent="511" vertex="1">
                    <mxGeometry x="169" width="98.5" height="130" as="geometry"/>
                </mxCell>
                <mxCell id="520" value="Game Title" style="text;html=1;strokeColor=none;fillColor=none;align=center;verticalAlign=middle;whiteSpace=wrap;rounded=0;fontSize=15;fontColor=#000000;container=0;" parent="511" vertex="1">
                    <mxGeometry x="172.5" y="130" width="91.5" height="30" as="geometry"/>
                </mxCell>
                <mxCell id="521" value="Platform" style="text;html=1;strokeColor=none;fillColor=none;align=center;verticalAlign=middle;whiteSpace=wrap;rounded=0;fontSize=13;fontColor=#808080;container=0;" parent="511" vertex="1">
                    <mxGeometry x="172.5" y="150" width="91.5" height="30" as="geometry"/>
                </mxCell>
                <mxCell id="551" value="" style="group" parent="1" vertex="1" connectable="0">
                    <mxGeometry x="1100" y="2420" width="360" height="460" as="geometry"/>
                </mxCell>
                <mxCell id="529" value="" style="rounded=0;whiteSpace=wrap;html=1;" parent="551" vertex="1">
                    <mxGeometry width="360" height="460" as="geometry"/>
                </mxCell>
                <mxCell id="530" value="&lt;b&gt;&lt;font style=&quot;font-size: 16px;&quot;&gt;Follow Us&lt;/font&gt;&lt;/b&gt;" style="text;html=1;align=left;verticalAlign=middle;whiteSpace=wrap;rounded=0;" parent="551" vertex="1">
                    <mxGeometry x="20" y="308.75" width="120" height="30" as="geometry"/>
                </mxCell>
                <mxCell id="531" value="" style="shape=image;html=1;verticalAlign=top;verticalLabelPosition=bottom;labelBackgroundColor=#ffffff;imageAspect=0;aspect=fixed;image=https://cdn2.iconfinder.com/data/icons/social-media-2285/512/1_Facebook_colored_svg_copy-128.png;fillColor=none;strokeColor=none;" parent="551" vertex="1">
                    <mxGeometry x="23" y="351.25" width="27.5" height="27.5" as="geometry"/>
                </mxCell>
                <mxCell id="532" value="" style="shape=image;html=1;verticalAlign=top;verticalLabelPosition=bottom;labelBackgroundColor=#ffffff;imageAspect=0;aspect=fixed;image=https://cdn3.iconfinder.com/data/icons/2018-social-media-logotypes/1000/2018_social_media_popular_app_logo_twitter-128.png;fillColor=none;strokeColor=none;" parent="551" vertex="1">
                    <mxGeometry x="68" y="351.25" width="27.5" height="27.5" as="geometry"/>
                </mxCell>
                <mxCell id="533" value="" style="shape=image;html=1;verticalAlign=top;verticalLabelPosition=bottom;labelBackgroundColor=#ffffff;imageAspect=0;aspect=fixed;image=https://cdn4.iconfinder.com/data/icons/social-media-flat-7/64/Social-media_Youtube-128.png;fillColor=none;strokeColor=none;" parent="551" vertex="1">
                    <mxGeometry x="111" y="350" width="30" height="30" as="geometry"/>
                </mxCell>
                <mxCell id="534" value="" style="dashed=0;outlineConnect=0;html=1;align=center;labelPosition=center;verticalLabelPosition=bottom;verticalAlign=top;shape=mxgraph.weblogos.instagram;fillColor=none;strokeColor=none;" parent="551" vertex="1">
                    <mxGeometry x="156" y="351.25" width="29" height="27.5" as="geometry"/>
                </mxCell>
                <mxCell id="536" value="&lt;b&gt;&lt;font style=&quot;font-size: 16px;&quot;&gt;Support&lt;/font&gt;&lt;/b&gt;" style="text;html=1;align=left;verticalAlign=middle;whiteSpace=wrap;rounded=0;" parent="551" vertex="1">
                    <mxGeometry x="20" y="20" width="120" height="30" as="geometry"/>
                </mxCell>
                <mxCell id="537" value="&lt;span style=&quot;font-size: 16px;&quot;&gt;&lt;b&gt;Corporate&lt;/b&gt;&lt;/span&gt;" style="text;html=1;align=left;verticalAlign=middle;whiteSpace=wrap;rounded=0;" parent="551" vertex="1">
                    <mxGeometry x="20" y="130" width="120" height="30" as="geometry"/>
                </mxCell>
                <mxCell id="538" value="&lt;b&gt;&lt;font style=&quot;font-size: 16px;&quot;&gt;Legal&lt;/font&gt;&lt;/b&gt;" style="text;html=1;align=left;verticalAlign=middle;whiteSpace=wrap;rounded=0;" parent="551" vertex="1">
                    <mxGeometry x="20" y="220" width="120" height="30" as="geometry"/>
                </mxCell>
                <mxCell id="539" value="Privacy Policy" style="text;html=1;strokeColor=none;fillColor=none;align=left;verticalAlign=middle;whiteSpace=wrap;rounded=0;fontSize=13;fontColor=#000000;" parent="551" vertex="1">
                    <mxGeometry x="20" y="250" width="150" height="30" as="geometry"/>
                </mxCell>
                <mxCell id="540" value="Terms &amp;amp; Conditions" style="text;html=1;strokeColor=none;fillColor=none;align=left;verticalAlign=middle;whiteSpace=wrap;rounded=0;fontSize=13;fontColor=#000000;" parent="551" vertex="1">
                    <mxGeometry x="20" y="270" width="150" height="30" as="geometry"/>
                </mxCell>
                <mxCell id="541" value="About Us" style="text;html=1;strokeColor=none;fillColor=none;align=left;verticalAlign=middle;whiteSpace=wrap;rounded=0;fontSize=13;fontColor=#000000;" parent="551" vertex="1">
                    <mxGeometry x="20" y="160" width="150" height="30" as="geometry"/>
                </mxCell>
                <mxCell id="542" value="Our Store" style="text;html=1;strokeColor=none;fillColor=none;align=left;verticalAlign=middle;whiteSpace=wrap;rounded=0;fontSize=13;fontColor=#000000;" parent="551" vertex="1">
                    <mxGeometry x="20" y="180" width="150" height="30" as="geometry"/>
                </mxCell>
                <mxCell id="543" value="Contact Us" style="text;html=1;strokeColor=none;fillColor=none;align=left;verticalAlign=middle;whiteSpace=wrap;rounded=0;fontSize=13;fontColor=#000000;" parent="551" vertex="1">
                    <mxGeometry x="20" y="70" width="150" height="30" as="geometry"/>
                </mxCell>
                <mxCell id="544" value="FAQ" style="text;html=1;strokeColor=none;fillColor=none;align=left;verticalAlign=middle;whiteSpace=wrap;rounded=0;fontSize=13;fontColor=#000000;" parent="551" vertex="1">
                    <mxGeometry x="20" y="50" width="150" height="30" as="geometry"/>
                </mxCell>
                <mxCell id="545" value="Shipping &amp;amp; Return" style="text;html=1;strokeColor=none;fillColor=none;align=left;verticalAlign=middle;whiteSpace=wrap;rounded=0;fontSize=13;fontColor=#000000;" parent="551" vertex="1">
                    <mxGeometry x="20" y="91.25" width="150" height="30" as="geometry"/>
                </mxCell>
                <mxCell id="546" value="" style="group;align=left;" parent="551" vertex="1" connectable="0">
                    <mxGeometry x="20" y="420" width="330" height="30" as="geometry"/>
                </mxCell>
                <mxCell id="547" value="&amp;nbsp;Copyright&amp;nbsp; &amp;nbsp; &amp;nbsp;2024 | Developed By &lt;i&gt;Team (2)&lt;/i&gt;" style="text;html=1;align=left;verticalAlign=middle;whiteSpace=wrap;rounded=0;" parent="546" vertex="1">
                    <mxGeometry width="330" height="30" as="geometry"/>
                </mxCell>
                <mxCell id="548" value="" style="strokeColor=#0f0f0f;verticalLabelPosition=bottom;shadow=0;dashed=0;verticalAlign=top;strokeWidth=1;html=1;shape=mxgraph.mockup.misc.copyrightIcon;perimeterSpacing=0;align=left;" parent="546" vertex="1">
                    <mxGeometry x="60" y="10" width="10" height="10" as="geometry"/>
                </mxCell>
                <mxCell id="535" value="" style="verticalLabelPosition=bottom;shadow=0;dashed=0;align=center;html=1;verticalAlign=top;strokeWidth=1;shape=mxgraph.mockup.markup.line;strokeColor=#999999;fontSize=16;fontColor=#000000;fillColor=#808080;" parent="546" vertex="1">
                    <mxGeometry y="-20" width="320" height="20" as="geometry"/>
                </mxCell>
                <mxCell id="552" value="" style="group" parent="1" vertex="1" connectable="0">
                    <mxGeometry x="1120" y="2230" width="320" height="160" as="geometry"/>
                </mxCell>
                <mxCell id="523" value="" style="rounded=0;whiteSpace=wrap;html=1;" parent="552" vertex="1">
                    <mxGeometry width="320" height="160" as="geometry"/>
                </mxCell>
                <mxCell id="524" value="Sign up and be the first to hear about the hottest offers, new releases, and exclusive deals.&amp;nbsp;" style="text;html=1;align=left;verticalAlign=middle;whiteSpace=wrap;rounded=0;fontSize=13;" parent="552" vertex="1">
                    <mxGeometry x="15.75" y="56.5" width="288.5" height="30" as="geometry"/>
                </mxCell>
                <mxCell id="525" value="Subscribe to our newsletter" style="text;html=1;align=left;verticalAlign=middle;whiteSpace=wrap;rounded=0;fontStyle=1;fontSize=17;" parent="552" vertex="1">
                    <mxGeometry x="15.75" y="18.5" width="255" height="30" as="geometry"/>
                </mxCell>
                <mxCell id="526" value="" style="line;strokeWidth=2;html=1;" parent="552" vertex="1">
                    <mxGeometry x="17.63000000000011" y="131.5" width="275" height="10" as="geometry"/>
                </mxCell>
                <mxCell id="527" value="Your Email" style="text;html=1;align=center;verticalAlign=middle;whiteSpace=wrap;rounded=0;textOpacity=50;" parent="552" vertex="1">
                    <mxGeometry x="18.13000000000011" y="106.5" width="60" height="30" as="geometry"/>
                </mxCell>
                <mxCell id="528" value="&lt;b&gt;SUBMIT&lt;/b&gt;" style="text;html=1;align=center;verticalAlign=middle;whiteSpace=wrap;rounded=0;" parent="552" vertex="1">
                    <mxGeometry x="230.1300000000001" y="106.5" width="60" height="30" as="geometry"/>
                </mxCell>
                <mxCell id="557" value="" style="group" vertex="1" connectable="0" parent="1">
                    <mxGeometry x="1170" y="950" width="223" height="260" as="geometry"/>
                </mxCell>
                <mxCell id="558" value="" style="rounded=0;whiteSpace=wrap;html=1;strokeColor=#000000;fontSize=15;fontColor=#000000;fillColor=none;" vertex="1" parent="557">
                    <mxGeometry width="223" height="260" as="geometry"/>
                </mxCell>
                <mxCell id="559" value="Lucky Draw" style="text;html=1;strokeColor=none;fillColor=none;align=left;verticalAlign=middle;whiteSpace=wrap;rounded=0;fontSize=17;fontColor=#000000;fontStyle=1" vertex="1" parent="557">
                    <mxGeometry x="14" y="10" width="136" height="30" as="geometry"/>
                </mxCell>
                <mxCell id="560" value="Game Img" style="rounded=0;whiteSpace=wrap;html=1;strokeColor=none;fontSize=15;fontColor=#333333;fillColor=#f5f5f5;" vertex="1" parent="557">
                    <mxGeometry x="20" y="59" width="90" height="120" as="geometry"/>
                </mxCell>
                <mxCell id="561" value="&lt;div style=&quot;&quot;&gt;&lt;span style=&quot;background-color: initial;&quot;&gt;Game&amp;nbsp;&lt;/span&gt;&lt;span style=&quot;background-color: initial;&quot;&gt;Title&lt;/span&gt;&lt;/div&gt;&lt;div style=&quot;&quot;&gt;&lt;span style=&quot;background-color: initial;&quot;&gt;&lt;font color=&quot;#808080&quot; style=&quot;font-size: 13px;&quot;&gt;Platform&lt;/font&gt;&lt;/span&gt;&lt;/div&gt;" style="text;html=1;strokeColor=none;fillColor=none;align=left;verticalAlign=middle;whiteSpace=wrap;rounded=0;fontSize=15;fontColor=#000000;" vertex="1" parent="557">
                    <mxGeometry x="127.75" y="54" width="71.5" height="40" as="geometry"/>
                </mxCell>
                <mxCell id="562" value="&lt;strike&gt;$99.99&lt;/strike&gt;" style="text;html=1;strokeColor=none;fillColor=none;align=left;verticalAlign=middle;whiteSpace=wrap;rounded=0;fontSize=15;fontColor=#000000;" vertex="1" parent="557">
                    <mxGeometry x="127.75" y="94" width="60" height="30" as="geometry"/>
                </mxCell>
                <mxCell id="563" value="Free" style="text;html=1;strokeColor=none;fillColor=none;align=left;verticalAlign=middle;whiteSpace=wrap;rounded=0;fontSize=21;fontColor=#000000;fontStyle=1" vertex="1" parent="557">
                    <mxGeometry x="127.75" y="124" width="80" height="30" as="geometry"/>
                </mxCell>
                <mxCell id="564" value="&lt;div style=&quot;text-align: center; font-size: 16px;&quot;&gt;&lt;span style=&quot;background-color: initial; font-size: 16px;&quot;&gt;Ends in&amp;nbsp;&amp;nbsp;&lt;/span&gt;&lt;span style=&quot;background-color: initial; font-size: 16px;&quot;&gt;00:00:00&lt;/span&gt;&lt;/div&gt;" style="text;html=1;strokeColor=none;fillColor=none;align=left;verticalAlign=middle;whiteSpace=wrap;rounded=0;fontSize=16;" vertex="1" parent="557">
                    <mxGeometry x="20" y="220" width="167.75" height="30" as="geometry"/>
                </mxCell>
                <mxCell id="565" value="Participate" style="rounded=1;whiteSpace=wrap;html=1;fontSize=13;fontColor=#000000;" vertex="1" parent="557">
                    <mxGeometry x="129.25" y="164" width="70" height="20" as="geometry"/>
                </mxCell>
                <mxCell id="566" value="Elite member only" style="text;html=1;strokeColor=none;fillColor=none;align=left;verticalAlign=middle;whiteSpace=wrap;rounded=0;fontSize=17;fontColor=#000000;fontStyle=1" vertex="1" parent="557">
                    <mxGeometry x="20" y="193" width="176" height="30" as="geometry"/>
                </mxCell>
                <mxCell id="570" value="" style="group" vertex="1" connectable="0" parent="1">
                    <mxGeometry x="1100" y="590" width="360" height="70" as="geometry"/>
                </mxCell>
                <mxCell id="416" value="" style="rounded=0;whiteSpace=wrap;html=1;strokeColor=default;fontSize=13;fontColor=#000000;fillColor=none;" parent="570" vertex="1">
                    <mxGeometry width="360" height="70" as="geometry"/>
                </mxCell>
                <mxCell id="417" value="Gamestopia" style="text;strokeColor=none;fillColor=none;html=1;fontSize=24;fontStyle=1;verticalAlign=middle;align=center;" parent="570" vertex="1">
                    <mxGeometry x="80" y="17.5" width="160" height="40" as="geometry"/>
                </mxCell>
                <mxCell id="419" value="" style="html=1;verticalLabelPosition=bottom;align=center;labelBackgroundColor=#ffffff;verticalAlign=top;strokeWidth=2;strokeColor=#000000;shadow=0;dashed=0;shape=mxgraph.ios7.icons.user;fillColor=none;" parent="570" vertex="1">
                    <mxGeometry x="260" y="20" width="30" height="30" as="geometry"/>
                </mxCell>
                <mxCell id="427" value="" style="html=1;verticalLabelPosition=bottom;labelBackgroundColor=#ffffff;verticalAlign=top;shadow=0;dashed=0;strokeWidth=2;shape=mxgraph.ios7.misc.options;fillColor=#222222;sketch=0;strokeColor=default;fontSize=13;fontColor=#000000;" parent="570" vertex="1">
                    <mxGeometry x="20" y="25" width="30" height="25" as="geometry"/>
                </mxCell>
                <mxCell id="568" value="" style="html=1;verticalLabelPosition=bottom;align=center;labelBackgroundColor=#ffffff;verticalAlign=top;strokeWidth=2;strokeColor=#000000;shadow=0;dashed=0;shape=mxgraph.ios7.icons.bookmark;" vertex="1" parent="570">
                    <mxGeometry x="310" y="20" width="22.5" height="30" as="geometry"/>
                </mxCell>
            </root>
        </mxGraphModel>
    </diagram>
</mxfile>